<?xml version="1.0" encoding="UTF-8" standalone="no"?>
<!-- Created with Inkscape (http://www.inkscape.org/) -->

<svg
   xmlns:dc="http://purl.org/dc/elements/1.1/"
   xmlns:cc="http://creativecommons.org/ns#"
   xmlns:rdf="http://www.w3.org/1999/02/22-rdf-syntax-ns#"
   xmlns:svg="http://www.w3.org/2000/svg"
   xmlns="http://www.w3.org/2000/svg"
   xmlns:sodipodi="http://sodipodi.sourceforge.net/DTD/sodipodi-0.dtd"
   xmlns:inkscape="http://www.inkscape.org/namespaces/inkscape"
   width="279.5"
   height="55.722672"
   id="svg3630"
   version="1.1"
   inkscape:version="0.48.4 r9939"
   sodipodi:docname="New document 8">
  <defs
     id="defs3632" />
  <sodipodi:namedview
     id="base"
     pagecolor="#ffffff"
     bordercolor="#666666"
     borderopacity="1.0"
     inkscape:pageopacity="0.0"
     inkscape:pageshadow="2"
     inkscape:zoom="0.35"
     inkscape:cx="374.75001"
     inkscape:cy="519.28992"
     inkscape:document-units="px"
     inkscape:current-layer="layer1"
     showgrid="false"
     fit-margin-top="0"
     fit-margin-left="0"
     fit-margin-right="0"
     fit-margin-bottom="0"
     inkscape:window-width="1095"
     inkscape:window-height="542"
     inkscape:window-x="1600"
     inkscape:window-y="0"
     inkscape:window-maximized="0" />
  <metadata
     id="metadata3635">
    <rdf:RDF>
      <cc:Work
         rdf:about="">
        <dc:format>image/svg+xml</dc:format>
        <dc:type
           rdf:resource="http://purl.org/dc/dcmitype/StillImage" />
        <dc:title></dc:title>
      </cc:Work>
    </rdf:RDF>
  </metadata>
  <g
     inkscape:label="Layer 1"
     inkscape:groupmode="layer"
     id="layer1"
     transform="translate(-0.249995,-995.92943)">
    <path
       inkscape:connector-curvature="0"
       id="path3592"
       style="font-size:72px;font-style:normal;font-variant:normal;font-weight:bold;font-stretch:normal;text-align:start;line-height:125%;letter-spacing:0px;word-spacing:0px;writing-mode:lr-tb;text-anchor:start;fill:#fc9200;fill-opacity:1;stroke:none;font-family:Symbol;-inkscape-font-specification:Symbol Bold"
       d="m 36.812505,1017.7966 c 1.5937,-2.4375 3.48042,-4.289 5.66016,-5.5547 2.20307,-1.289 4.61713,-1.9335 7.24218,-1.9336 4.52338,10e-5 7.96869,1.3946 10.33594,4.1836 2.36712,2.7891 3.55071,6.8438 3.55078,12.1641 l 0,23.9765 -12.65625,0 0,-20.5312 c 0.0234,-0.3047 0.0351,-0.6211 0.0352,-0.9492 0.0234,-0.3281 0.0351,-0.7969 0.0351,-1.4063 -5e-5,-2.789 -0.41021,-4.8046 -1.23046,-6.0468 -0.82037,-1.2656 -2.14459,-1.8984 -3.97266,-1.8985 -2.39068,10e-5 -4.24224,0.9844 -5.55469,2.9531 -1.28911,1.9688 -1.95707,4.8165 -2.0039,8.543 l 0,19.3359 -12.65625,0 0,-20.5312 c -4e-5,-4.3594 -0.37504,-7.1601 -1.125,-8.4023 -0.75003,-1.2656 -2.08597,-1.8984 -4.00782,-1.8985 -2.41408,10e-5 -4.27736,0.9961 -5.58984,2.9883 -1.31252,1.9688 -1.96877,4.793 -1.96875,8.4727 l 0,19.371 -12.65625,0 0,-39.3749 12.65625,0 0,5.7656 c 1.54685,-2.2265 3.31638,-3.9023 5.30859,-5.0274 2.0156,-1.1249 4.23044,-1.6874 6.64453,-1.6875 2.71872,10e-5 5.12106,0.6563 7.20704,1.9688 2.08589,1.3125 3.66792,3.1524 4.74609,5.5195" />
    <path
       inkscape:connector-curvature="0"
       id="path3594"
       style="font-size:72px;font-style:normal;font-variant:normal;font-weight:bold;font-stretch:normal;text-align:start;line-height:125%;letter-spacing:0px;word-spacing:0px;writing-mode:lr-tb;text-anchor:start;fill:#fc9200;fill-opacity:1;stroke:none;font-family:Symbol;-inkscape-font-specification:Symbol Bold"
       d="m 89.15234,1019.3083 c -2.78908,10e-5 -4.92189,1.0079 -6.39843,3.0235 -1.45315,1.9922 -2.17971,4.875 -2.17968,8.6484 -3e-5,3.7735 0.72653,6.668 2.17968,8.6836 1.47654,1.9922 3.60935,2.9883 6.39843,2.9883 2.74216,0 4.83983,-0.9961 6.29297,-2.9883 1.45309,-2.0156 2.17966,-4.9101 2.17969,-8.6836 -3e-5,-3.7734 -0.7266,-6.6562 -2.17969,-8.6484 -1.45314,-2.0156 -3.55081,-3.0234 -6.29297,-3.0235 m 0,-9 c 6.77341,10e-5 12.05856,1.8282 15.85547,5.4844 3.82027,3.6563 5.73042,8.7188 5.73047,15.1875 -5e-5,6.4688 -1.9102,11.5313 -5.73047,15.1875 -3.79691,3.6563 -9.08206,5.4844 -15.85547,5.4844 -6.79689,0 -12.117195,-1.8281 -15.960925,-5.4844 -3.82032,-3.6562 -5.73048,-8.7187 -5.73047,-15.1875 -10e-6,-6.4687 1.91015,-11.5312 5.73047,-15.1875 3.84373,-3.6562 9.164035,-5.4843 15.960925,-5.4844" />
    <path
       inkscape:connector-curvature="0"
       id="path3596"
       style="font-size:72px;font-style:normal;font-variant:normal;font-weight:bold;font-stretch:normal;text-align:start;line-height:125%;letter-spacing:0px;word-spacing:0px;writing-mode:lr-tb;text-anchor:start;fill:#fc9200;fill-opacity:1;stroke:none;font-family:Symbol;-inkscape-font-specification:Symbol Bold"
       d="m 128.66017,1000.0779 0,11.1797 12.97265,0 0,8.9999 -12.97265,0 0,16.6993 c -2e-5,1.8281 0.36326,3.0703 1.08984,3.7265 0.72654,0.6329 2.16794,0.9493 4.32422,0.9492 l 6.46875,0 0,9 -10.79297,0 c -4.96878,0 -8.49611,-1.0312 -10.58204,-3.0937 -2.06251,-2.0859 -3.09376,-5.6133 -3.09375,-10.582 l 0,-16.6993 -6.25781,0 0,-8.9999 6.25781,0 0,-11.1797 12.58595,0" />
    <path
       inkscape:connector-curvature="0"
       id="path3598"
       style="font-size:72px;font-style:normal;font-variant:normal;font-weight:bold;font-stretch:normal;text-align:start;line-height:125%;letter-spacing:0px;word-spacing:0px;writing-mode:lr-tb;text-anchor:start;fill:#fc9200;fill-opacity:1;stroke:none;font-family:Symbol;-inkscape-font-specification:Symbol Bold"
       d="m 175.61719,1021.9802 c -1.1016,-0.5156 -2.20316,-0.8906 -3.30468,-1.125 -1.07816,-0.2578 -2.16801,-0.3867 -3.26953,-0.3867 -3.2344,0 -5.7305,1.043 -7.48829,3.1289 -1.7344,2.0625 -2.60158,5.0274 -2.60157,8.8945 l 0,18.1406 -12.58593,0 0,-39.375 12.58593,0 0,6.4688 c 1.61718,-2.5781 3.46873,-4.4531 5.55469,-5.625 2.10936,-1.1953 4.62888,-1.7929 7.5586,-1.793 0.42184,10e-5 0.87887,0.024 1.37109,0.07 0.49215,0.024 1.207,0.094 2.14453,0.211 l 0.0352,11.3906" />
    <path
       inkscape:connector-curvature="0"
       id="path3600"
       style="font-size:72px;font-style:normal;font-variant:normal;font-weight:bold;font-stretch:normal;text-align:start;line-height:125%;letter-spacing:0px;word-spacing:0px;writing-mode:lr-tb;text-anchor:start;fill:#fc9200;fill-opacity:1;stroke:none;font-family:Symbol;-inkscape-font-specification:Symbol Bold"
       d="m 179.94531,1011.2576 12.58594,0 0,39.3749 -12.58594,0 0,-39.375 m 0,-15.32807 12.58594,0 0,10.26557 -12.58594,0 0,-10.26557" />
    <path
       inkscape:connector-curvature="0"
       id="path3602"
       style="font-size:72px;font-style:normal;font-variant:normal;font-weight:bold;font-stretch:normal;text-align:start;line-height:125%;letter-spacing:0px;word-spacing:0px;writing-mode:lr-tb;text-anchor:start;fill:#fc9200;fill-opacity:1;stroke:none;font-family:Symbol;-inkscape-font-specification:Symbol Bold"
       d="m 232.51173,1012.488 0,10.2656 c -1.71099,-1.1718 -3.43363,-2.039 -5.16797,-2.6015 -1.71097,-0.5625 -3.49222,-0.8437 -5.34375,-0.8438 -3.51565,10e-5 -6.25783,1.0313 -8.22656,3.0938 -1.94534,2.0391 -2.91799,4.8984 -2.91797,8.5781 -2e-5,3.6797 0.97264,6.5508 2.91797,8.6133 1.96873,2.0391 4.71091,3.0586 8.22656,3.0586 1.96872,0 3.832,-0.293 5.58984,-0.8789 1.78122,-0.586 3.42184,-1.4531 4.92188,-2.6016 l 0,10.3008 c -1.9688,0.7266 -3.9727,1.2656 -6.01172,1.6172 -2.01566,0.375 -4.043,0.5625 -6.08203,0.5625 -7.10158,0 -12.65627,-1.8164 -16.66406,-5.4492 -4.00783,-3.6563 -6.01174,-8.7305 -6.01173,-15.2227 -1e-5,-6.4922 2.0039,-11.5547 6.01173,-15.1875 4.00779,-3.6562 9.56248,-5.4843 16.66406,-5.4844 2.06247,10e-5 4.08981,0.1876 6.08203,0.5625 2.01559,0.3516 4.01948,0.8907 6.01172,1.6172" />
    <path
       inkscape:connector-curvature="0"
       id="path3604"
       style="font-size:72px;font-style:normal;font-variant:normal;font-weight:bold;font-stretch:normal;text-align:start;line-height:125%;letter-spacing:0px;word-spacing:0px;writing-mode:lr-tb;text-anchor:start;fill:#fc9200;fill-opacity:1;stroke:none;font-family:Symbol;-inkscape-font-specification:Symbol Bold"
       d="m 279.75,1030.8396 0,3.5859 -29.42578,0 c 0.30467,2.9532 1.37107,5.168 3.19922,6.6445 1.8281,1.4766 4.38279,2.2149 7.66406,2.2149 2.64841,0 5.35544,-0.3867 8.12109,-1.1602 2.78903,-0.7968 5.6484,-1.9921 8.57813,-3.5859 l 0,9.7031 c -2.97661,1.125 -5.95316,1.9688 -8.92969,2.5313 -2.97659,0.5859 -5.95315,0.8789 -8.92969,0.8789 -7.12502,0 -12.66798,-1.8047 -16.6289,-5.4141 -3.93751,-3.6328 -5.90626,-8.7187 -5.90625,-15.2578 -1e-5,-6.4218 1.93359,-11.4726 5.80078,-15.1523 3.89061,-3.6797 9.23435,-5.5195 16.03125,-5.5196 6.18747,10e-5 11.13277,1.8634 14.83594,5.5899 3.72651,3.7266 5.58979,8.707 5.58984,14.9414 m -12.9375,-4.1836 c -3e-5,-2.3906 -0.70316,-4.3125 -2.10938,-5.7656 -1.38284,-1.4766 -3.19924,-2.2148 -5.44921,-2.2149 -2.43753,10e-5 -4.41799,0.6915 -5.94141,2.0742 -1.52346,1.3594 -2.47267,3.3282 -2.84766,5.9063 l 16.34766,0" />
  </g>
</svg>
